<svg xmlns="http://www.w3.org/2000/svg" viewBox="0 0 64 64">
  <defs>
    <linearGradient id="gold-gradient" x1="0%" y1="0%" x2="100%" y2="100%">
      <stop offset="0%" style="stop-color:#D4AF37;stop-opacity:1" />
      <stop offset="100%" style="stop-color:#C99F2E;stop-opacity:1" />
    </linearGradient>
  </defs>
  <circle cx="32" cy="32" r="30" fill="#0A0A0A"/>
  <path d="M32 12 C 20 12 14 24 20 32 C 23 36 29 38 32 40 C 35 42 32 48 26 48 C 20 48 17 42 17 40" stroke="url(#gold-gradient)" stroke-width="4" fill="none" stroke-linecap="round"/>
  <path d="M32 12 C 44 12 50 24 44 32 C 41 36 35 38 32 40 C 29 42 32 48 38 48 C 44 48 47 42 47 40" stroke="url(#gold-gradient)" stroke-width="4" fill="none" stroke-linecap="round" opacity="0.5"/>
  <line x1="40" y1="20" x2="24" y2="52" stroke="url(#gold-gradient)" stroke-width="3" stroke-linecap="round" />
</svg>